PathFileType	4	(X/Y/Z)	C:/Users/Carlo/Dropbox/Carlos/SARAH/CongressoMarcha2025/WorkshopOpenSim/C3D/Caso03/pyCGM2 Walking02.c3d.trc
DataRate	CameraRate	NumFrames	NumMarkers	Units	OrigDataRate	OrigDataStartFrame	OrigNumFrames
100.000000	100.000000	2	163	mm	100.000000	446	510
Frame#	Time	PELO			PELA			PELL			PELP			LFEO			LFEA			LFEL			LFEP			LTIO			LTIA			LTIL			LTIP			LFOO			LFOA			LFOL			LFOP			LTOO			LTOA			LTOL			LTOP			RFEO			RFEA			RFEL			RFEP			RTIO			RTIA			RTIL			RTIP			RFOO			RFOA			RFOL			RFOP			RTOO			RTOA			RTOL			RTOP			PELVIS_CGM_2.3O			PELVIS_CGM_2.3A			PELVIS_CGM_2.3L			PELVIS_CGM_2.3P			LFEMUR_CGM_2.3O			LFEMUR_CGM_2.3A			LFEMUR_CGM_2.3L			LFEMUR_CGM_2.3P			LTIBIA_CGM_2.3O			LTIBIA_CGM_2.3A			LTIBIA_CGM_2.3L			LTIBIA_CGM_2.3P			LFOOT_CGM_2.3O			LFOOT_CGM_2.3A			LFOOT_CGM_2.3L			LFOOT_CGM_2.3P			LTOES_CGM_2.3O			LTOES_CGM_2.3A			LTOES_CGM_2.3L			LTOES_CGM_2.3P			RFEMUR_CGM_2.3O			RFEMUR_CGM_2.3A			RFEMUR_CGM_2.3L			RFEMUR_CGM_2.3P			RTIBIA_CGM_2.3O			RTIBIA_CGM_2.3A			RTIBIA_CGM_2.3L			RTIBIA_CGM_2.3P			RFOOT_CGM_2.3O			RFOOT_CGM_2.3A			RFOOT_CGM_2.3L			RFOOT_CGM_2.3P			RTOES_CGM_2.3O			RTOES_CGM_2.3A			RTOES_CGM_2.3L			RTOES_CGM_2.3P			LASI			RASI			LPSI			RPSI			LTHI			LTHAP			LTHAD			LKNE			LTIB			LTIAP			LTIAD			LANK			LHEE			LTOE			RTHI			RTHAP			RTHAD			RKNE			RTIB			RTIAP			RTIAD			RANK			RHEE			RTOE			LHipAngles			LKneeAngles			LAbsAnkleAngle			LAnkleAngles			RHipAngles			RKneeAngles			RAnkleAngles			RAbsAnkleAngle			LPelvisAngles			RPelvisAngles			LFootProgressAngles			RFootProgressAngles			LHipAngles_CGM_2.3			LKneeAngles_CGM_2.3			LAnkleAngles_CGM_2.3			RHipAngles_CGM_2.3			RKneeAngles_CGM_2.3			RAnkleAngles_CGM_2.3			LFootProgressAngles_CGM_2.3			RFootProgressAngles_CGM_2.3			LPelvisAngles_CGM_2.3			RPelvisAngles_CGM_2.3			LHipPower			LKneePower			LAnklePower			RHipPower			RKneePower			RAnklePower			LHipPower_CGM_2.3			LKneePower_CGM_2.3			LAnklePower_CGM_2.3			RHipPower_CGM_2.3			RKneePower_CGM_2.3			RAnklePower_CGM_2.3			RGroundReactionForce			RNormalisedGRF			LAnkleForce			RAnkleForce			RKneeForce			LKneeForce			RHipForce			LHipForce			LHipForce_CGM_2.3			LKneeForce_CGM_2.3			LAnkleForce_CGM_2.3			RHipForce_CGM_2.3			RKneeForce_CGM_2.3			RAnkleForce_CGM_2.3			RGroundReactionMoment			LAnkleMoment			RAnkleMoment			RKneeMoment			LKneeMoment			RHipMoment			LHipMoment			LHipMoment_CGM_2.3			LKneeMoment_CGM_2.3			LAnkleMoment_CGM_2.3			RHipMoment_CGM_2.3			RKneeMoment_CGM_2.3			RAnkleMoment_CGM_2.3			LHJC_CGM_2.3			LKJC_CGM_2.3			RHJC_CGM_2.3			RKJC_CGM_2.3			LAJC_CGM_2.3			RAJC_CGM_2.3			
		X1	Y1	Z1	X2	Y2	Z2	X3	Y3	Z3	X4	Y4	Z4	X5	Y5	Z5	X6	Y6	Z6	X7	Y7	Z7	X8	Y8	Z8	X9	Y9	Z9	X10	Y10	Z10	X11	Y11	Z11	X12	Y12	Z12	X13	Y13	Z13	X14	Y14	Z14	X15	Y15	Z15	X16	Y16	Z16	X17	Y17	Z17	X18	Y18	Z18	X19	Y19	Z19	X20	Y20	Z20	X21	Y21	Z21	X22	Y22	Z22	X23	Y23	Z23	X24	Y24	Z24	X25	Y25	Z25	X26	Y26	Z26	X27	Y27	Z27	X28	Y28	Z28	X29	Y29	Z29	X30	Y30	Z30	X31	Y31	Z31	X32	Y32	Z32	X33	Y33	Z33	X34	Y34	Z34	X35	Y35	Z35	X36	Y36	Z36	X37	Y37	Z37	X38	Y38	Z38	X39	Y39	Z39	X40	Y40	Z40	X41	Y41	Z41	X42	Y42	Z42	X43	Y43	Z43	X44	Y44	Z44	X45	Y45	Z45	X46	Y46	Z46	X47	Y47	Z47	X48	Y48	Z48	X49	Y49	Z49	X50	Y50	Z50	X51	Y51	Z51	X52	Y52	Z52	X53	Y53	Z53	X54	Y54	Z54	X55	Y55	Z55	X56	Y56	Z56	X57	Y57	Z57	X58	Y58	Z58	X59	Y59	Z59	X60	Y60	Z60	X61	Y61	Z61	X62	Y62	Z62	X63	Y63	Z63	X64	Y64	Z64	X65	Y65	Z65	X66	Y66	Z66	X67	Y67	Z67	X68	Y68	Z68	X69	Y69	Z69	X70	Y70	Z70	X71	Y71	Z71	X72	Y72	Z72	X73	Y73	Z73	X74	Y74	Z74	X75	Y75	Z75	X76	Y76	Z76	X77	Y77	Z77	X78	Y78	Z78	X79	Y79	Z79	X80	Y80	Z80	X81	Y81	Z81	X82	Y82	Z82	X83	Y83	Z83	X84	Y84	Z84	X85	Y85	Z85	X86	Y86	Z86	X87	Y87	Z87	X88	Y88	Z88	X89	Y89	Z89	X90	Y90	Z90	X91	Y91	Z91	X92	Y92	Z92	X93	Y93	Z93	X94	Y94	Z94	X95	Y95	Z95	X96	Y96	Z96	X97	Y97	Z97	X98	Y98	Z98	X99	Y99	Z99	X100	Y100	Z100	X101	Y101	Z101	X102	Y102	Z102	X103	Y103	Z103	X104	Y104	Z104	X105	Y105	Z105	X106	Y106	Z106	X107	Y107	Z107	X108	Y108	Z108	X109	Y109	Z109	X110	Y110	Z110	X111	Y111	Z111	X112	Y112	Z112	X113	Y113	Z113	X114	Y114	Z114	X115	Y115	Z115	X116	Y116	Z116	X117	Y117	Z117	X118	Y118	Z118	X119	Y119	Z119	X120	Y120	Z120	X121	Y121	Z121	X122	Y122	Z122	X123	Y123	Z123	X124	Y124	Z124	X125	Y125	Z125	X126	Y126	Z126	X127	Y127	Z127	X128	Y128	Z128	X129	Y129	Z129	X130	Y130	Z130	X131	Y131	Z131	X132	Y132	Z132	X133	Y133	Z133	X134	Y134	Z134	X135	Y135	Z135	X136	Y136	Z136	X137	Y137	Z137	X138	Y138	Z138	X139	Y139	Z139	X140	Y140	Z140	X141	Y141	Z141	X142	Y142	Z142	X143	Y143	Z143	X144	Y144	Z144	X145	Y145	Z145	X146	Y146	Z146	X147	Y147	Z147	X148	Y148	Z148	X149	Y149	Z149	X150	Y150	Z150	X151	Y151	Z151	X152	Y152	Z152	X153	Y153	Z153	X154	Y154	Z154	X155	Y155	Z155	X156	Y156	Z156	X157	Y157	Z157	X158	Y158	Z158	X159	Y159	Z159	X160	Y160	Z160	X161	Y161	Z161	X162	Y162	Z162	X163	Y163	Z163	

447	4.46	2543.229492187501	867.4264526367192	61.50148010253909	2704.442138671876	850.237182617188	60.94417190551761	2542.787597656251	868.5380249023442	-100.6214141845704	2560.422119140626	1028.63623046875	62.55992507934573	2433.885498046876	463.2131652832034	-8.822788238525394	2811.765380859376	359.6936340332032	-155.0312652587891	2289.909667968751	490.821228027344	-400.4797668457034	2540.488281250001	867.450561523438	-19.51585769653321	2258.183837890626	91.72196960449222	27.95302581787111	2606.069335937501	-78.8348083496094	-32.85620117187501	2188.229248046876	86.60915374755862	-357.9122924804689	2425.197998046876	444.8452148437502	-7.004428863525394	2382.994140625001	61.8328552246094	5.590355873107912	2406.901611328126	241.8738403320314	-5.260486602783205	2365.777343750001	53.21501541137698	-175.3333892822266	2203.449951171876	86.63296508789065	21.49458503723145	2442.842285156251	53.56615066528323	0.2890018224716188	2450.811523437501	113.5798492431641	-3.327810287475588	2437.103515625001	50.69364547729495	-60.01892471313479	2382.994384765626	61.83280944824222	5.590279102325441	2687.570068359376	475.629821777344	157.8122711181641	3068.245849609376	616.9006347656252	252.1438598632814	2781.408203125001	493.706481933594	-247.9433746337892	2545.970947265626	867.4023437500005	142.5187225341797	2798.316650390626	93.47238922119143	155.7894134521485	3128.746337890627	188.4008178710938	312.1586303710939	2948.021972656251	138.6757049560547	-188.0005340576172	2693.192626953126	456.2283935546877	157.7096099853516	2914.589843750001	120.9746093750001	205.9779052734376	2854.441650390626	291.6534423828126	209.3111267089845	2965.595214843751	142.3149871826172	33.63168334960939	2751.676269531251	64.64077758789065	150.7886352539063	2968.894775390626	139.7526092529297	224.3743133544923	2948.845214843751	196.6456146240236	225.4853515625001	2985.896484375001	146.8660278320313	166.9255065917969	2914.590087890626	120.9744873046876	205.9779815673829	2532.540039062501	886.223022460938	63.70440292358401	2692.111083984376	868.7246704101567	62.82934570312503	2531.571044921876	885.413208007813	-96.82063293457037	2550.033447265626	1045.79443359375	62.79378128051761	2419.649902343751	462.9289855957034	-7.082359790802006	2835.531738281251	351.8806762695314	-76.05291748046878	2350.564941406251	471.4857482910159	-437.4314575195315	2530.626953125001	884.404174804688	-16.51748275756837	2255.379882812501	97.13950347900396	28.77289962768556	2610.922363281251	-70.96233367919925	-57.27164840698245	2162.227539062501	100.5837707519532	-362.868621826172	2419.649414062501	462.929382324219	-7.081932067871097	2384.679931640626	66.05390167236331	29.11350059509279	2411.418701171876	249.3421936035157	15.56780719757081	2365.207763671876	55.26788711547854	-155.2707061767579	2201.926269531251	94.02000427246097	46.77756500244142	2445.590087890626	56.73189926147464	23.22550010681153	2454.502929687501	117.8279266357422	18.71027374267579	2439.099365234376	53.1365661621094	-38.23583221435548	2384.672363281251	66.0539245605469	29.11351585388185	2679.510009765626	470.6470031738284	159.0149993896485	3092.275390625002	616.3581542968752	221.3327941894532	2743.312255859376	477.0072326660159	-278.4541625976564	2534.442626953126	888.041625976563	143.9261779785157	2801.600097656251	90.53890228271487	157.0469970703126	3141.825927734377	198.8922729492189	335.6439819335939	2971.104736328126	146.8319854736329	-200.0107421875001	2679.511962890626	470.6463012695315	159.0156250000001	2930.530029296876	126.7839965820313	186.0059967041016	2861.521972656251	305.2744140625001	187.5230865478516	2983.781494140626	148.9230346679688	3.530303955078127	2760.161621093751	61.40608978271487	128.3557739257813	2987.320068359376	148.5769958496094	205.2230072021486	2964.317382812501	208.0737304687501	205.7286987304689	3005.070556640626	155.9566650390626	144.3978424072266	2930.530761718751	126.7843856811524	186.0062866210938	2593.354980468751	951.8807983398442	-69.07724761962893	2594.069091796876	950.0841674804692	192.9508666992189	2399.662353515626	973.7871704101567	19.67278099060059	2398.636962890626	969.5654907226567	121.140739440918	2454.549072265626	629.0184326171877	-87.75222778320315	2592.170166015626	732.1931762695315	-56.27781677246097	2549.013427734376	572.543151855469	-21.20603370666505	2413.917236328126	467.042175292969	-63.14229583740237	2302.534667968751	249.6501312255861	-47.77545547485353	2415.706542968751	359.9770812988282	22.03057289123536	2335.893066406251	200.7658996582032	40.15661239624025	2240.707275390626	88.4846115112305	-11.20165920257569	2198.461181640626	68.03499603271487	35.9210777282715	2387.813476562501	41.27539443969728	18.76430702209473	2588.174560546876	672.1902465820315	255.7719879150392	2660.998291015626	773.6471557617192	173.7236633300782	2709.816894531251	620.7687988281252	174.3837432861329	2674.626464843751	473.1363525390627	213.7809295654298	2699.235351562501	294.360809326172	224.7599182128907	2759.626953125001	341.3506469726564	146.5588836669922	2798.616943359376	210.8992614746095	157.2310485839844	2783.101074218751	78.42989349365237	193.0883789062501	2768.366699218751	38.95039749145509	136.0904541015626	2933.153320312501	101.7009582519532	194.334442138672	1.805213451385499	-20.21968269348145	-8.693719863891605	-0.2115659415721894	10.88791084289551	11.13267803192139	0	0	17.77593421936036	-4.730263233184816	15.41848278045655	18.46304893493653	-2.525052309036256	-13.10117149353028	25.95771408081056	1.487246751785279	-11.25744438171387	4.157304286956789	-2.170562028884889	8.947064399719242	2.899060249328614	0	0	2.86370611190796	0.3740766942501069	-0.1969246864318849	6.087404251098636	-0.3740766942501069	0.1969246864318849	6.087404251098636	3.432137727737429	-5.014696121215822	-82.13559722900393	1.107912540435791	-17.75314140319825	-109.0749282836915	0.8725339770317082	-8.844320297241214	-8.499219894409183	2.355040073394776	-3.605890035629274	9.906909942626957	-2.66626000404358	7.842830657958988	16.00659942626954	-1.796189904212953	-8.529088973999027	25.40839958190919	2.02361011505127	-18.41729927062989	1.661479949951173	-1.664090037345887	9.016630172729496	3.163369894027712	-4.201660156250002	-174.5420074462891	-98.70030212402349	-179.5229949951172	17.53260040283204	110.9940032958985	180.2890014648438	-0.3458800017833711	-173.7420043945313	-180.2890014648438	0.3458800017833711	-173.7420043945313	nan	nan	nan	nan	nan	nan	nan	nan	nan	0	-0.1459920108318329	0	0	-1.040171146392823	0	0	-0.01715265959501267	0	nan	nan	nan	nan	nan	nan	nan	nan	nan	nan	nan	nan	nan	nan	nan	nan	nan	nan	nan	nan	nan	nan	nan	nan	nan	nan	nan	-0.08441028743982318	-0.4557688534259798	-0.08033914864063266	-0.2552693188190461	0.6360170245170595	-0.9133657813072209	nan	nan	nan	-0.08517005294561389	1.727777481079102	-0.262722134590149	nan	nan	nan	-0.01608029939234257	1.752560019493104	-0.186152994632721	0.01981589943170548	0.7085229754447939	0.07626070082187655	0.01116069965064526	-0.008542389608919624	0.172085002064705	-0.001047019963152707	1.848620057106019	-0.1255050003528596	-0.01406489964574576	0.7897530198097233	0.683947026729584	-0.1379649937152863	-0.416563004255295	0.2017930001020433	nan	nan	nan	nan	nan	nan	0	12.338454246521	17.27184104919434	123.327621459961	11.79993343353272	-450.9281921386721	nan	nan	nan	68.75993347167972	-2.693456649780274	719.4533691406252	nan	nan	nan	20.09749984741212	-5.784299850463869	-45.90560150146486	10.8484001159668	-1.882220029830934	-50.90019989013675	-0.3234519958496095	-1.818220019340516	-1.170709967613221	-88.12100219726565	-10.61830043792725	530.0520019531252	-6.550350189208988	5.665810108184816	-466.4739990234377	1.708459973335267	5.2814998626709	33.90589904785158	2530.629882812501	884.4050292968755	-16.51740074157716	2419.649902343751	462.9289855957034	-7.082359790802006	2534.439941406251	888.0410156250005	143.9259948730469	2679.510009765626	470.6470031738284	159.0149993896485	2255.379882812501	97.13950347900396	28.77289962768556	2801.600097656251	90.53890228271487	157.0469970703126	
448	4.47	2556.431152343751	865.2164916992192	62.50201034545901	2717.614501953126	847.770874023438	61.62048339843753	2555.679687500001	866.4649047851567	-99.61872863769537	2573.882812500001	1026.3974609375	63.66231155395511	2443.257324218751	462.0026550292971	-8.794635772705082	2819.654052734376	355.5200805664064	-156.7857360839844	2298.071289062501	492.2809753417971	-399.8429260253909	2553.533935546876	865.3129272460942	-18.50974655151368	2259.767089843751	93.47866058349612	26.7156105041504	2604.493896484376	-84.17903900146487	-35.71973419189455	2188.815673828126	91.578727722168	-359.6251831054689	2434.198486328126	443.8086242675784	-7.041530609130863	2384.270263671876	61.6606369018555	5.323466777801515	2411.087890625001	241.3171691894532	-5.088733196258547	2368.389404296876	53.53715133666995	-175.7452545166016	2205.014404296876	89.25785827636722	19.80722236633301	2444.022216796876	52.46156311035159	0.4955492317676546	2452.961669921876	112.3470458984376	-2.975063562393189	2438.728759765626	49.75385284423831	-59.86067581176761	2384.270263671876	61.66075134277347	5.323352336883547	2701.118652343751	473.4676513671877	157.3452148437501	3081.701416015627	614.588073730469	251.8404846191407	2794.604980468751	492.9862976074221	-248.323211669922	2559.327880859376	865.1200561523442	143.5138092041016	2818.750000000001	93.32515716552737	155.1247558593751	3147.449218750002	194.1238403320314	311.5798950195314	2967.648193359376	141.4083862304688	-188.6763610839844	2707.090087890626	454.1707153320315	157.2325286865235	2935.250000000001	122.8603286743165	203.6024932861329	2872.186767578126	292.4636535644532	207.8378295898439	2983.337402343751	145.0625762939454	30.52783203125001	2772.551513671876	63.68293762207034	150.8066406250001	2989.483154296876	142.586166381836	221.2011108398439	2968.462158203126	199.1205902099611	222.6129760742189	3005.512207031251	149.9869689941407	163.5095825195313	2935.250244140626	122.8604125976563	203.602508544922	2545.659912109376	883.9990234375005	64.82330322265628	2705.191406250001	866.1642456054692	63.59390640258792	2544.351074218751	883.355834960938	-95.70005798339847	2563.489013671876	1043.533935546875	64.03869628906253	2428.709960937501	461.8120117187502	-7.016749858856205	2843.515869140626	347.1037902832032	-76.47418975830081	2359.515625000001	472.1404113769534	-437.3093872070315	2543.576904296876	882.2661743164067	-15.39604568481446	2256.820068359376	99.43389892578131	27.73850059509279	2609.210693359376	-75.84056091308597	-56.94841766357425	2165.458740234376	105.1702957153321	-364.2977905273439	2428.709960937501	461.8123779296877	-7.016798019409183	2385.530029296876	66.03019714355472	28.85740089416505	2415.639404296876	248.8109436035157	15.52862262725831	2366.991455078126	55.62971115112308	-155.6451110839844	2203.204101562501	97.27204895019537	45.41607666015626	2446.300048828126	55.61619949340823	23.33779907226563	2456.336425781251	116.5430450439454	18.89487838745118	2440.120605468751	52.14937591552737	-38.16297531127931	2385.524658203126	66.03013610839847	28.8573513031006	2692.139892578126	468.049011230469	158.4309997558594	3105.655517578127	612.9140625000002	217.6714782714845	2752.489501953126	474.8760070800784	-279.5208129882814	2547.733398437501	885.7307128906255	145.0428771972657	2821.969970703126	90.51679992675784	156.2369995117188	3160.958007812502	206.066131591797	332.6638183593751	2988.169677734376	149.7527465820313	-201.896697998047	2692.140380859376	468.0488281250002	158.4312286376954	2950.679931640626	128.9290008544922	183.3459930419922	2878.736816406251	306.2471313476564	185.7310180664063	3000.970458984376	151.7977905273438	0.1217346191406251	2780.626220703126	60.67556762695315	128.1515655517579	3007.360107421876	151.6799926757813	201.7440032958986	2983.379150390626	210.7859802246095	202.5390014648439	3024.123535156251	159.3029174804688	140.6693115234376	2950.675537109376	128.9288635253907	183.3458862304688	2606.439941406251	949.7006835937505	-68.15432739257815	2607.654785156251	947.682250976563	193.9747314453126	2412.980957031251	971.8468627929692	21.15789031982423	2412.009277343751	967.5368652343755	122.6312332153321	2465.119628906251	627.8568115234377	-87.30091094970706	2603.610351562501	729.9327392578127	-55.66679000854495	2559.351318359376	570.5216064453127	-20.86619949340821	2423.122802734376	466.2016601562502	-63.02536773681643	2307.265380859376	250.8781127929689	-48.32061004638675	2422.591064453126	358.7735900878907	22.01447105407716	2339.268066406251	201.2319183349611	39.56631088256837	2242.146972656251	90.78128814697268	-12.41571998596192	2199.373046875001	71.29075622558597	34.75571441650392	2388.125000000001	41.2312469482422	18.54207420349122	2601.673828125001	669.596374511719	256.1848144531251	2674.552246093751	770.8928222656255	173.8678283691407	2722.375732421876	617.9100341796877	173.6080932617188	2688.220458984376	470.7746276855471	213.3151397705079	2715.966308593751	292.4671325683595	224.2981109619142	2775.080078125001	340.5379333496095	145.6716461181641	2816.604248046876	210.813201904297	156.3284759521485	2803.806396484376	77.99103546142581	192.4149932861329	2789.229248046876	38.21410751342775	135.5898895263672	2953.938476562501	103.9091949462891	191.6758117675782	1.686552047729493	-20.356351852417	-9.123850822448734	-0.5290654301643374	10.88212394714356	11.71214675903321	0	0	18.00291442871094	-4.934761047363283	16.01776695251466	18.75662231445313	-2.40709686279297	-13.21208572387696	26.07666587829591	1.547186255455018	-11.27672863006592	3.142292737960817	-2.386851310729981	9.755146980285648	2.805827379226685	0	0	2.76518201828003	0.4100313782691958	-0.3114764094352723	6.179604530334476	-0.4100313782691958	0.3114764094352723	6.179604530334476	3.29111433029175	-4.565861701965334	-81.24778747558597	1.40177321434021	-16.95936393737794	-109.9875869750977	0.7567700147628789	-8.779379844665531	-8.908679962158207	2.221760034561158	-3.349159955978395	10.56270027160645	-2.726900100708009	7.9527702331543	16.1476001739502	-1.670849919319154	-8.220279693603519	25.43440055847169	2.018970012664796	-18.51499938964844	0.3685820102691652	-1.75426995754242	9.446220397949222	2.898819684982301	-4.131959915161135	-174.884994506836	-99.72329711914068	-179.2550048828126	16.76269912719727	111.8690032958985	180.2299957275391	-0.4671829640865328	-173.6210021972657	-180.2299957275391	0.4671829640865328	-173.6210021972657	nan	nan	nan	nan	nan	nan	nan	nan	nan	0	-0.121964454650879	0	0	-0.6066046953201296	0	0	-0.00494404509663582	0	nan	nan	nan	nan	nan	nan	nan	nan	nan	nan	nan	nan	nan	nan	nan	nan	nan	nan	nan	nan	nan	nan	nan	nan	nan	nan	nan	-0.09973697364330297	-0.4513534605503084	-0.04518283903598787	-0.2848650813102723	0.6020758748054507	-0.8857831954956059	nan	nan	nan	-0.118954248726368	1.724943280220033	-0.2250293493270875	nan	nan	nan	-0.02908420003950597	1.797639966011048	-0.2577530145645143	0.005903000012040142	0.734705984592438	0.04701960086822513	0.006208530161529783	-0.005339399911463262	0.176354005932808	-0.03892900049686433	1.887750029563905	-0.1745440065860749	-0.03607109934091569	0.7839620113372807	0.6517819762229922	-0.1492269933223725	-0.4133079946041109	0.1928350031375886	nan	nan	nan	nan	nan	nan	7.322823763348861e-16	15.1548080444336	23.7006015777588	135.9062805175782	14.33928966522218	-451.9903259277346	nan	nan	nan	93.67204284667972	-0.8152647614479069	712.0869750976565	nan	nan	nan	16.60460090637208	-4.573780059814455	-84.0570983886719	6.283070087432865	-1.596050024032594	-48.55479812622073	-0.4961859583854678	-1.489099979400635	-0.6785590052604678	-66.55190277099612	-9.213230133056644	517.7620239257815	3.990700006484987	7.331870079040531	-468.7409973144534	2.055690050125123	6.916339874267582	37.91099929809572	2543.580078125001	882.2670288085942	-15.3961000442505	2428.709960937501	461.8120117187502	-7.016749858856205	2547.739990234376	885.7310180664067	145.0429992675782	2692.139892578126	468.049011230469	158.4309997558594	2256.820068359376	99.43389892578131	27.73850059509279	2821.969970703126	90.51679992675784	156.2369995117188	
